<svg version="1.1" xmlns="http://www.w3.org/2000/svg" xmlns:xlink="http://www.w3.org/1999/xlink" viewBox="0 0 426.667 426.667" style="enable-background:new 0 0 426.667 426.667;" xml:space="preserve"><path d="M234.667,0.533v64.64c72.32,10.347,128,72.427,128,147.627c0,19.093-3.733,37.333-10.24,54.08l55.467,32.747 c11.84-26.56,18.773-55.787,18.773-86.827C426.667,102.187,342.507,11.307,234.667,0.533z M213.333,362.133 C130.88,362.133,64,295.253,64,212.8c0-75.2,55.68-137.28,128-147.627V0.533C84.053,11.2,0,102.187,0,212.8 c0,117.867,95.36,213.333,213.227,213.333c70.613,0,133.013-34.453,171.84-87.253l-55.36-32.64 C302.4,340.267,260.48,362.133,213.333,362.133z"/></svg>
